<mxfile host="app.diagrams.net" agent="Mozilla/5.0 (Macintosh; Intel Mac OS X 10_15_7) AppleWebKit/605.1.15 (KHTML, like Gecko) Version/18.5 Safari/605.1.15" version="28.0.6">
  <diagram name="Page-1" id="QUSyXE4FKEDLOO2tF11h">
    <mxGraphModel dx="1188" dy="1796" grid="1" gridSize="10" guides="1" tooltips="1" connect="1" arrows="1" fold="1" page="1" pageScale="1" pageWidth="850" pageHeight="1100" math="0" shadow="0">
      <root>
        <mxCell id="0" />
        <mxCell id="1" parent="0" />
        <mxCell id="qqvTs--5xzDs9Msz5ulz-6" style="edgeStyle=orthogonalEdgeStyle;rounded=0;orthogonalLoop=1;jettySize=auto;html=1;" edge="1" parent="1" source="qqvTs--5xzDs9Msz5ulz-26" target="qqvTs--5xzDs9Msz5ulz-34">
          <mxGeometry relative="1" as="geometry">
            <mxPoint x="410" y="200" as="sourcePoint" />
            <mxPoint x="520" y="275.9999999999999" as="targetPoint" />
          </mxGeometry>
        </mxCell>
        <mxCell id="qqvTs--5xzDs9Msz5ulz-7" style="edgeStyle=orthogonalEdgeStyle;rounded=0;orthogonalLoop=1;jettySize=auto;html=1;" edge="1" parent="1" source="qqvTs--5xzDs9Msz5ulz-26" target="qqvTs--5xzDs9Msz5ulz-33">
          <mxGeometry relative="1" as="geometry">
            <mxPoint x="300" y="190.0000000000001" as="sourcePoint" />
            <mxPoint x="200" y="270" as="targetPoint" />
          </mxGeometry>
        </mxCell>
        <mxCell id="qqvTs--5xzDs9Msz5ulz-10" style="edgeStyle=orthogonalEdgeStyle;rounded=0;orthogonalLoop=1;jettySize=auto;html=1;" edge="1" parent="1">
          <mxGeometry relative="1" as="geometry">
            <mxPoint x="360" y="160.0000000000001" as="targetPoint" />
            <mxPoint x="360" y="50" as="sourcePoint" />
            <Array as="points">
              <mxPoint x="360" y="80" />
            </Array>
          </mxGeometry>
        </mxCell>
        <mxCell id="qqvTs--5xzDs9Msz5ulz-11" value="HTTP JSON:API + API KEY" style="edgeLabel;html=1;align=center;verticalAlign=middle;resizable=0;points=[];" vertex="1" connectable="0" parent="qqvTs--5xzDs9Msz5ulz-10">
          <mxGeometry x="0.007" y="3" relative="1" as="geometry">
            <mxPoint y="-1" as="offset" />
          </mxGeometry>
        </mxCell>
        <mxCell id="qqvTs--5xzDs9Msz5ulz-9" style="edgeStyle=orthogonalEdgeStyle;rounded=0;orthogonalLoop=1;jettySize=auto;html=1;entryX=0.5;entryY=0;entryDx=0;entryDy=0;entryPerimeter=0;" edge="1" parent="1" source="qqvTs--5xzDs9Msz5ulz-34" target="qqvTs--5xzDs9Msz5ulz-28">
          <mxGeometry relative="1" as="geometry">
            <mxPoint x="520" y="350" as="sourcePoint" />
            <mxPoint x="610" y="390" as="targetPoint" />
          </mxGeometry>
        </mxCell>
        <mxCell id="qqvTs--5xzDs9Msz5ulz-12" style="edgeStyle=orthogonalEdgeStyle;rounded=0;orthogonalLoop=1;jettySize=auto;html=1;" edge="1" parent="1" source="qqvTs--5xzDs9Msz5ulz-34" target="qqvTs--5xzDs9Msz5ulz-33">
          <mxGeometry relative="1" as="geometry">
            <mxPoint x="460" y="300" as="sourcePoint" />
            <mxPoint x="224" y="299.9999999999999" as="targetPoint" />
          </mxGeometry>
        </mxCell>
        <mxCell id="qqvTs--5xzDs9Msz5ulz-14" value="&lt;font style=&quot;font-size: 12px;&quot;&gt;Validar productos&lt;/font&gt;" style="edgeLabel;html=1;align=center;verticalAlign=middle;resizable=0;points=[];" vertex="1" connectable="0" parent="qqvTs--5xzDs9Msz5ulz-12">
          <mxGeometry x="-0.1119" y="-3" relative="1" as="geometry">
            <mxPoint x="-15" y="3" as="offset" />
          </mxGeometry>
        </mxCell>
        <mxCell id="qqvTs--5xzDs9Msz5ulz-36" value="" style="edgeStyle=orthogonalEdgeStyle;rounded=0;orthogonalLoop=1;jettySize=auto;html=1;" edge="1" parent="1" source="qqvTs--5xzDs9Msz5ulz-33" target="qqvTs--5xzDs9Msz5ulz-27">
          <mxGeometry relative="1" as="geometry">
            <mxPoint x="200" y="350" as="sourcePoint" />
          </mxGeometry>
        </mxCell>
        <mxCell id="qqvTs--5xzDs9Msz5ulz-26" value="&lt;span style=&quot;caret-color: rgb(255, 255, 255); font-size: 12px; font-weight: 400; color: rgb(0, 0, 0);&quot;&gt;API Gateway&lt;/span&gt;" style="sketch=0;outlineConnect=0;fontColor=#232F3E;gradientColor=none;strokeColor=#ffffff;fillColor=#232F3E;dashed=0;verticalLabelPosition=middle;verticalAlign=bottom;align=center;html=1;whiteSpace=wrap;fontSize=10;fontStyle=1;spacing=3;shape=mxgraph.aws4.productIcon;prIcon=mxgraph.aws4.api_gateway;" vertex="1" parent="1">
          <mxGeometry x="320" y="160" width="80" height="100" as="geometry" />
        </mxCell>
        <mxCell id="qqvTs--5xzDs9Msz5ulz-27" value="&lt;span style=&quot;white-space: normal;&quot;&gt;DB Productos&lt;/span&gt;" style="outlineConnect=0;dashed=0;verticalLabelPosition=middle;verticalAlign=middle;align=right;html=1;shape=mxgraph.aws3.rds;fillColor=#2E73B8;gradientColor=none;labelPosition=left;" vertex="1" parent="1">
          <mxGeometry x="172" y="380" width="56" height="70" as="geometry" />
        </mxCell>
        <mxCell id="qqvTs--5xzDs9Msz5ulz-28" value="&lt;span style=&quot;white-space: normal;&quot;&gt;DB Inventarios + Historial&lt;/span&gt;" style="outlineConnect=0;dashed=0;verticalLabelPosition=middle;verticalAlign=middle;align=left;html=1;shape=mxgraph.aws3.rds;fillColor=#2E73B8;gradientColor=none;whiteSpace=wrap;labelPosition=right;" vertex="1" parent="1">
          <mxGeometry x="492" y="380" width="56" height="70" as="geometry" />
        </mxCell>
        <mxCell id="qqvTs--5xzDs9Msz5ulz-33" value="&lt;span style=&quot;caret-color: rgb(0, 0, 0); color: rgb(0, 0, 0);&quot;&gt;&lt;font&gt;MS Productos&lt;/font&gt;&lt;/span&gt;" style="sketch=0;outlineConnect=0;fontColor=#232F3E;gradientColor=none;fillColor=#ED7100;strokeColor=none;dashed=0;verticalLabelPosition=middle;verticalAlign=middle;align=right;html=1;fontSize=12;fontStyle=0;aspect=fixed;pointerEvents=1;shape=mxgraph.aws4.ec2_aws_microservice_extractor_for_net;labelPosition=left;" vertex="1" parent="1">
          <mxGeometry x="176" y="280" width="48" height="48" as="geometry" />
        </mxCell>
        <mxCell id="qqvTs--5xzDs9Msz5ulz-34" value="&lt;span style=&quot;caret-color: rgb(0, 0, 0); color: rgb(0, 0, 0);&quot;&gt;&lt;font&gt;MS Inventario&lt;/font&gt;&lt;/span&gt;" style="sketch=0;outlineConnect=0;fontColor=#232F3E;gradientColor=none;fillColor=#ED7100;strokeColor=none;dashed=0;verticalLabelPosition=middle;verticalAlign=middle;align=left;html=1;fontSize=12;fontStyle=0;aspect=fixed;pointerEvents=1;shape=mxgraph.aws4.ec2_aws_microservice_extractor_for_net;labelPosition=right;" vertex="1" parent="1">
          <mxGeometry x="496" y="280" width="48" height="48" as="geometry" />
        </mxCell>
        <mxCell id="qqvTs--5xzDs9Msz5ulz-37" value="&lt;span style=&quot;white-space: normal;&quot;&gt;Frontend / Postman&lt;/span&gt;" style="image;aspect=fixed;perimeter=ellipsePerimeter;html=1;align=center;shadow=0;dashed=0;spacingTop=3;image=img/lib/active_directory/laptop_client.svg;whiteSpace=wrap;labelPosition=center;verticalLabelPosition=top;verticalAlign=bottom;" vertex="1" parent="1">
          <mxGeometry x="325" y="-20" width="70" height="77.78" as="geometry" />
        </mxCell>
        <mxCell id="qqvTs--5xzDs9Msz5ulz-41" value="" style="rounded=0;whiteSpace=wrap;html=1;labelBackgroundColor=none;fillColor=none;" vertex="1" parent="1">
          <mxGeometry x="84" y="140" width="552" height="370" as="geometry" />
        </mxCell>
        <mxCell id="qqvTs--5xzDs9Msz5ulz-42" value="Red Privada (Docker compose)" style="shape=image;html=1;verticalAlign=middle;verticalLabelPosition=middle;labelBackgroundColor=#ffffff;imageAspect=0;aspect=fixed;image=https://icons.diagrams.net/icon-cache1/Ionicons_Fill_Vol_2-2187/logo-docker-1464.svg;labelPosition=right;align=left;" vertex="1" parent="1">
          <mxGeometry x="410" y="520" width="50" height="50" as="geometry" />
        </mxCell>
      </root>
    </mxGraphModel>
  </diagram>
</mxfile>
